<?xml version="1.0" encoding="UTF-8" standalone="no"?><!DOCTYPE svg PUBLIC "-//W3C//DTD SVG 1.1//EN" "http://www.w3.org/Graphics/SVG/1.1/DTD/svg11.dtd"><svg width="1920px" height="1663px" version="1.1" xmlns="http://www.w3.org/2000/svg" xmlns:xlink="http://www.w3.org/1999/xlink" xml:space="preserve" xmlns:serif="http://www.serif.com/" style="fill-rule:evenodd;clip-rule:evenodd;stroke-linejoin:bevel;stroke-miterlimit:1.5;"><g transform="matrix(1,0,0,1,0,-84)"><g transform="matrix(24.5514,0,0,24.5514,-389.563,-513.747)"><g transform="matrix(1,0,0,1,5,10)"><path d="M88.23,70.828L60.628,48.879C60.276,48.598 59.8,48.527 59.3,48.731L54.3,51.699L52.3,50.168C52.538,49.848 52.741,49.496 52.89,49.117L52.948,48.969L55.327,47.77C55.487,47.692 55.636,47.59 55.788,47.488L55.819,47.508C55.819,47.508 55.851,47.449 55.87,47.43C56.292,47.102 56.64,46.68 56.87,46.199L56.909,46.121L57.858,45.633C58.718,45.184 59.327,44.371 59.558,43.352C59.616,43.071 59.648,42.781 59.648,42.492C59.718,42.492 59.788,42.473 59.847,42.442C60.757,41.91 60.948,40.59 60.276,39.43C59.976,38.899 59.526,38.489 59.026,38.27C58.476,38.031 57.905,38.039 57.456,38.301C57.398,38.332 57.347,38.379 57.308,38.43C57.167,38.352 57.038,38.27 56.886,38.211C55.917,37.813 54.905,37.832 54.066,38.27L52.976,38.75L52.425,38.719C51.847,38.688 51.265,38.809 50.753,39.071L47.944,40.481L47.644,40.449C46.933,40.379 46.194,40.481 45.523,40.758L42.472,42.008L41.53,41.207L45.78,39.266C46.191,39.074 46.472,38.707 46.519,38.254C46.569,37.805 46.398,37.375 46.038,37.094L23.64,19.403C23.289,19.122 22.812,19.051 22.39,19.212L12.089,23.11C11.659,23.27 11.359,23.641 11.281,24.098C11.202,24.559 11.37,24.997 11.73,25.297L33.691,43.406C30.863,45.465 30.39,50.465 32.742,55.008C33.941,57.337 35.702,59.208 37.671,60.278C38.82,60.907 39.98,61.219 41.07,61.219C41.91,61.219 42.71,61.028 43.429,60.661C45.39,59.649 46.449,57.411 46.499,54.762C46.718,54.614 46.921,54.454 47.109,54.262L51.429,51.051C51.48,51.012 51.519,50.962 51.57,50.923L53.339,52.282L49.488,54.571C49.058,54.731 48.757,55.102 48.679,55.559C48.601,56.02 48.769,56.458 49.128,56.759L78.206,80.638C78.437,80.829 78.726,80.927 79.027,80.927C79.206,80.927 79.386,80.888 79.558,80.817L88.007,72.989C88.378,72.79 88.616,72.438 88.667,72.02C88.718,71.571 88.546,71.141 88.187,70.86L88.23,70.828ZM87.71,71.871C87.71,71.871 87.679,72.031 87.55,72.09L87.378,72.25L80.859,67.039L81.347,66.641L87.609,71.621C87.718,71.711 87.718,71.832 87.718,71.871L87.71,71.871ZM70.171,62.309L69.242,63.019L62.652,57.629L63.601,57L70.172,62.32L70.171,62.309ZM63.828,56.84L64.859,56.148L71.398,61.359L70.378,62.14L63.828,56.832L63.828,56.84ZM69.039,63.172L68.089,63.902L61.359,58.48L62.429,57.769L69.039,63.18L69.039,63.172ZM67.89,64.058L66.781,64.91L60.011,59.379L61.152,58.617L67.89,64.047L67.89,64.058ZM66.578,65.07L65.609,65.82L58.757,60.23L59.796,59.539L66.586,65.078L66.578,65.07ZM67.371,65.719L74.101,71.207L73.152,71.976L66.402,66.465L67.371,65.715L67.371,65.719ZM67.578,65.558L68.699,64.699L75.437,70.129L74.308,71.039L67.589,65.551L67.578,65.558ZM68.898,64.551L69.839,63.832L76.5,69.281L75.628,69.98L68.898,64.551ZM70.039,63.672L70.968,62.961L77.628,68.359L76.687,69.121L70.039,63.679L70.039,63.672ZM71.179,62.801L72.199,62.012L78.89,67.34L77.839,68.191L71.179,62.801ZM72.41,61.859L73.21,61.25L79.859,66.57L79.089,67.191L72.41,61.863L72.41,61.859ZM73.41,61.078L73.89,60.707L80.539,65.996L80.05,66.387L73.402,61.078L73.41,61.078ZM72.609,60.441L66.16,55.293L66.66,54.965L73.089,60.074L72.609,60.445L72.609,60.441ZM72.398,60.601L71.597,61.222L65.078,56.023L65.949,55.445L72.41,60.605L72.398,60.601ZM64.261,55.359L58.21,50.539L59.132,49.988L65.121,54.777L64.25,55.355L64.261,55.359ZM64.039,55.5L63.007,56.179L56.957,51.281L57.976,50.672L64.035,55.5L64.039,55.5ZM62.789,56.328L61.839,56.957L55.761,51.988L56.722,51.418L62.793,56.328L62.789,56.328ZM61.628,57.109L60.558,57.82L54.367,52.832L55.546,52.133L61.636,57.113L61.628,57.109ZM60.328,57.969L59.187,58.73L52.968,53.652L54.117,52.972L60.327,57.972L60.328,57.969ZM58.98,58.871L57.941,59.562L51.66,54.433L52.749,53.785L58.98,58.863L58.98,58.871ZM57.718,59.699L56.597,60.437L50.226,55.265L51.417,54.554L57.706,59.695L57.718,59.699ZM58.531,60.371L65.402,65.972L64.371,66.762L57.41,61.113L58.531,60.375L58.531,60.371ZM64.171,66.91L63.64,67.32L56.679,61.601L57.199,61.25L64.167,66.91L64.171,66.91ZM64.96,67.558L71.769,73.09L71.21,73.539L64.429,67.969L64.96,67.558ZM65.171,67.41L66.202,66.621L72.964,72.133L71.984,72.922L65.183,67.402L65.171,67.41ZM73.749,72.781L80.691,78.453L79.792,79.281L72.761,73.57L73.742,72.781L73.749,72.781ZM73.941,72.621L74.89,71.859L81.761,77.461L80.882,78.281L73.953,72.633L73.941,72.621ZM75.089,71.691L76.218,70.769L83.027,76.258L81.925,77.269L75.074,71.68L75.089,71.691ZM76.421,70.621L77.281,69.922L83.972,75.402L83.21,76.101L76.409,70.621L76.421,70.621ZM77.488,69.762L78.437,69L85.085,74.379L84.175,75.23L77.495,69.762L77.488,69.762ZM78.628,68.84L79.687,67.988L86.296,73.258L85.265,74.219L78.636,68.847L78.628,68.84ZM79.89,67.82L80.659,67.199L87.191,72.418L86.48,73.078L79.878,67.816L79.89,67.82ZM59.839,49.609C59.897,49.609 59.96,49.629 60.011,49.668L65.839,54.308L65.351,54.636L59.37,49.855L59.749,49.637C59.749,49.637 59.819,49.617 59.851,49.617L59.839,49.609ZM50.679,43.82C50.499,43.808 50.319,43.82 50.147,43.91L48.237,44.898C48.038,45.008 47.788,44.957 47.636,44.789L47.257,44.367C47.155,44.246 47.116,44.097 47.136,43.945C47.167,43.797 47.257,43.664 47.397,43.594L49.558,42.484C49.956,42.843 50.339,43.293 50.679,43.804L50.679,43.82ZM51.671,46.078C51.819,46.707 51.87,47.289 51.843,47.808L50.144,48.758C50.003,48.836 49.855,48.836 49.702,48.777C49.562,48.719 49.464,48.597 49.421,48.449L49.292,47.91C49.241,47.699 49.331,47.469 49.53,47.359L51.382,46.32C51.503,46.25 51.601,46.172 51.683,46.07L51.671,46.078ZM58.628,39.16C58.929,39.301 59.218,39.57 59.417,39.91C59.718,40.441 59.737,41.031 59.519,41.359C59.429,41 59.308,40.629 59.14,40.289C58.901,39.828 58.589,39.418 58.241,39.07C58.401,39.07 58.542,39.109 58.64,39.148L58.628,39.16ZM54.511,39.148C55.112,38.84 55.819,38.828 56.511,39.117C57.229,39.418 57.85,39.996 58.241,40.758C58.632,41.519 58.753,42.359 58.581,43.117C58.409,43.847 57.991,44.426 57.39,44.726L56.769,45.047C56.897,44.117 56.8,43.035 56.19,41.867C55.612,40.738 54.769,39.906 53.819,39.445L54.499,39.144L54.511,39.148ZM51.218,39.941C51.339,39.883 51.468,39.851 51.589,39.812C53.12,39.601 54.647,40.504 55.53,42.211C56.358,43.812 56.108,45.222 55.679,46.211C55.468,46.492 55.198,46.722 54.878,46.882L52.577,48.043C52.679,46.953 52.507,45.652 51.749,44.183C50.999,42.742 49.979,41.695 48.858,41.125L51.21,39.945L51.218,39.941ZM47.378,51.461C47.257,52.289 46.936,52.973 46.479,53.473C46.331,51.903 45.858,50.242 45.03,48.633C44.05,46.735 42.69,45.145 41.151,44.031C43.222,43.551 45.253,44.762 46.581,47.34C47.28,48.699 47.562,50.16 47.37,51.461L47.378,51.461ZM41.819,52.969C41.468,53.149 41.019,53.11 40.538,52.848C40.128,52.629 39.749,52.27 39.448,51.817L40.058,51.496C40.366,51.785 40.749,51.906 41.046,51.746C41.468,51.528 41.565,50.887 41.265,50.305C40.964,49.727 40.386,49.434 39.964,49.645C39.663,49.805 39.534,50.184 39.593,50.606L38.983,50.926C38.792,50.414 38.714,49.895 38.772,49.438C38.831,48.899 39.062,48.508 39.413,48.328C39.554,48.258 39.714,48.219 39.882,48.219C40.132,48.219 40.401,48.297 40.683,48.449C41.222,48.738 41.702,49.258 42.034,49.91C42.683,51.172 42.573,52.571 41.804,52.969L41.819,52.969ZM38.69,52.469L38.511,52.559C38.491,52.488 38.452,52.418 38.421,52.348L38.561,52.278C38.601,52.336 38.64,52.406 38.683,52.469L38.69,52.469ZM34.64,51.602L32.659,52C32.409,51.102 32.28,50.211 32.249,49.371L37.768,49.981C37.788,50.289 37.847,50.61 37.94,50.93L37.44,51.039C36.8,50.528 36.042,50.36 35.409,50.688C35.038,50.879 34.78,51.207 34.64,51.61L34.64,51.602ZM41.179,47.571C40.96,47.449 40.749,47.371 40.53,47.309L40.261,44.629C40.999,45.117 41.702,45.739 42.339,46.457L41.761,47.969C41.569,47.82 41.382,47.68 41.183,47.57L41.179,47.571ZM39.62,44.25C39.749,44.321 39.87,44.399 39.991,44.481L40.272,47.282C39.983,47.231 39.702,47.231 39.444,47.282L37.073,43.461C37.894,43.52 38.753,43.782 39.624,44.25L39.62,44.25ZM28.729,31.48L29.87,31.011L34.768,35.101L33.69,35.59L28.729,31.48ZM33.44,35.711L32.381,36.199L27.44,32.019L28.471,31.597L33.44,35.719L33.44,35.711ZM30.12,30.898L31.1,30.5L35.928,34.57L35.006,34.992L30.116,30.914L30.12,30.898ZM31.37,30.39L32.311,30L37.112,34.019L36.182,34.449L31.362,30.39L31.37,30.39ZM30.499,29.66L25.549,25.488L26.471,25.109L31.44,29.269L30.499,29.66ZM30.237,29.769L29.249,30.18L24.268,26.019L25.288,25.597L30.237,29.769ZM28.999,30.289L27.858,30.758L22.858,26.609L24.018,26.129L28.999,30.289ZM27.588,30.871L26.577,31.293L21.647,27.113L22.588,26.722L27.588,30.871ZM26.319,31.39L25.147,31.871L20.186,27.699L21.385,27.211L26.315,31.39L26.319,31.39ZM27.178,32.121L32.12,36.312L31.03,36.812L26.018,32.601L27.178,32.121ZM30.78,36.922L29.69,37.422L24.612,33.172L25.753,32.703L30.772,36.922L30.78,36.922ZM31.628,37.64L37.006,42.16L36.495,42.39C36.225,42.39 35.963,42.429 35.706,42.469L30.526,38.14L31.616,37.64L31.628,37.64ZM37.26,42.039L31.881,37.519L32.971,37.019L38.323,41.551L37.264,42.031L37.26,42.039ZM38.557,41.441L33.206,36.91L34.276,36.422L39.706,40.922L38.557,41.453L38.557,41.441ZM39.967,40.801L34.538,36.301L35.608,35.812L41.018,40.324L39.967,40.804L39.967,40.801ZM35.87,35.691L36.78,35.269L42.159,39.8L41.28,40.199L35.87,35.687L35.87,35.691ZM37.03,35.16L37.96,34.73L43.358,39.25L42.409,39.679L37.03,35.148L37.03,35.16ZM38.21,34.621L39.159,34.179L44.628,38.668L43.596,39.137L38.198,34.617L38.21,34.621ZM37.37,33.91L32.569,29.898L33.479,29.519L38.307,33.48L37.366,33.91L37.37,33.91ZM33.737,29.41L34.409,29.14L39.319,33.019L38.557,33.371L33.737,29.422L33.737,29.41ZM32.87,28.691L27.831,24.562L28.35,24.351L33.522,28.429L32.881,28.699L32.87,28.691ZM32.608,28.801L31.71,29.172L26.741,25.011L27.569,24.672L32.608,28.801ZM25.87,24.289L21.471,20.609L22.253,20.308L26.682,23.949L25.862,24.289L25.87,24.289ZM25.608,24.39L24.686,24.769L20.276,21.058L21.206,20.707L25.604,24.387L25.608,24.39ZM24.428,24.879L23.409,25.301L18.94,21.57L20.018,21.16L24.44,24.879L24.428,24.879ZM23.147,25.41L21.975,25.89L17.444,22.129L18.663,21.668L23.143,25.406L23.147,25.41ZM21.717,26L20.796,26.379L16.296,22.57L17.174,22.242L21.714,26.004L21.717,26ZM20.53,26.488L19.331,26.988L14.772,23.148L16.034,22.668L20.534,26.488L20.53,26.488ZM19.069,27.09L17.909,27.57L13.288,23.711L14.499,23.25L19.069,27.09ZM19.94,27.808L24.901,31.98L23.753,32.449L18.784,28.289L19.944,27.808L19.94,27.808ZM23.487,32.558L22.608,32.918L17.589,28.777L18.518,28.398L23.487,32.558ZM24.35,33.281L29.44,37.543L28.639,37.902L23.467,33.64L24.339,33.281L24.35,33.281ZM30.288,38.25L35.389,42.519C35.1,42.578 34.819,42.66 34.55,42.769L29.499,38.609L30.288,38.25ZM34.8,43.879C35.378,43.578 36.018,43.43 36.698,43.43L36.757,43.43L39.198,47.359C39.12,47.39 39.038,47.398 38.967,47.437C38.796,47.527 38.647,47.637 38.518,47.758L34.346,44.148C34.487,44.047 34.635,43.949 34.796,43.867L34.8,43.879ZM37.909,51.5C37.839,51.41 37.76,51.32 37.678,51.238L38.007,51.168C38.038,51.246 38.065,51.316 38.096,51.398L37.897,51.5L37.909,51.5ZM35.78,53.422C35.35,52.582 35.479,51.781 35.87,51.57C35.94,51.531 36.018,51.519 36.108,51.519C36.507,51.519 37.069,51.89 37.417,52.57C37.846,53.41 37.718,54.211 37.327,54.422C37.077,54.551 36.776,54.422 36.616,54.344C36.288,54.164 35.975,53.832 35.764,53.422L35.78,53.422ZM41.96,48.148L42.53,46.668C43.12,47.367 43.651,48.148 44.1,49.008L43.042,49.648C43.01,49.578 42.991,49.508 42.952,49.437C42.69,48.937 42.35,48.496 41.964,48.137L41.96,48.148ZM44.21,49.238C44.55,49.91 44.811,50.59 45.018,51.258L43.46,51.258C43.428,50.816 43.319,50.347 43.132,49.887L44.21,49.238ZM43.479,51.512L45.1,51.512C45.382,52.48 45.522,53.441 45.542,54.34L43.382,52.351C43.452,52.082 43.491,51.812 43.483,51.511L43.479,51.512ZM41.448,42.41L39.647,43.148C39.198,42.937 38.757,42.769 38.319,42.66L40.55,41.64L41.46,42.41L41.448,42.41ZM45.55,38.101C45.55,38.101 45.518,38.261 45.389,38.32L44.901,38.551L39.432,34.062L40.214,33.703L45.452,37.843C45.561,37.933 45.561,38.054 45.554,38.093L45.55,38.101ZM22.769,20.121C22.769,20.121 22.827,20.102 22.87,20.102C22.929,20.102 22.991,20.121 23.042,20.16L27.44,23.641L26.952,23.84L22.523,20.211L22.773,20.121L22.769,20.121ZM12.289,24.239C12.289,24.239 12.328,24.067 12.468,24.02L13.027,23.809L17.648,27.68L16.707,28.071L12.386,24.5C12.277,24.41 12.277,24.289 12.285,24.239L12.289,24.239ZM34.141,44.309L38.352,47.957C38.242,48.086 38.152,48.226 38.07,48.387L32.68,46.426C33,45.566 33.488,44.836 34.141,44.316L34.141,44.309ZM32.602,46.66L37.973,48.621C37.895,48.84 37.824,49.07 37.793,49.332C37.773,49.461 37.781,49.602 37.781,49.742L32.25,49.133C32.25,48.242 32.359,47.414 32.602,46.672L32.602,46.66ZM32.73,52.238L34.57,51.867C34.441,52.469 34.539,53.187 34.891,53.879C35.012,54.109 35.16,54.328 35.32,54.519L34.07,55.289C33.922,55.039 33.781,54.789 33.641,54.519C33.25,53.769 32.949,53 32.719,52.238L32.73,52.238ZM34.219,55.5L35.5,54.711C35.699,54.922 35.922,55.09 36.16,55.223C36.469,55.394 36.789,55.473 37.102,55.473C37.352,55.473 37.59,55.422 37.801,55.301C38.59,54.891 38.871,53.871 38.582,52.801L38.852,52.66C39.051,52.922 39.273,53.148 39.523,53.34L36.242,57.949C35.492,57.25 34.813,56.418 34.231,55.488L34.219,55.5ZM36.422,58.129L39.723,53.5C39.844,53.578 39.953,53.672 40.074,53.73C40.285,53.84 40.484,53.922 40.695,53.98L38.945,59.73C38.695,59.629 38.445,59.512 38.184,59.379C37.574,59.051 36.984,58.617 36.422,58.129L36.422,58.129ZM39.16,59.82L40.93,54.031C41.07,54.062 41.211,54.09 41.352,54.09C41.523,54.09 41.68,54.07 41.84,54.031L42.281,60.031C41.332,60.301 40.27,60.23 39.172,59.82L39.16,59.82ZM43,59.75C42.852,59.828 42.691,59.891 42.519,59.949L42.078,53.93C42.148,53.898 42.219,53.891 42.277,53.859C42.527,53.73 42.727,53.539 42.906,53.328L44.547,58.316C44.148,58.926 43.637,59.418 42.996,59.746L43,59.75ZM44.719,58.051L43.09,53.09C43.18,52.949 43.25,52.801 43.309,52.641L45.547,54.699C45.527,55.98 45.246,57.141 44.719,58.059L44.719,58.051ZM48.219,52.191C48.27,52 48.328,51.812 48.359,51.613C48.578,50.113 48.258,48.434 47.469,46.894C46.297,44.625 44.57,43.254 42.699,42.984L45.91,41.664C46.41,41.453 46.949,41.383 47.488,41.426C48.039,41.527 48.59,41.785 49.117,42.164L47.168,43.164C46.898,43.305 46.707,43.562 46.648,43.863C46.59,44.164 46.68,44.473 46.887,44.703L47.266,45.125C47.566,45.465 48.066,45.555 48.465,45.344L50.375,44.355C50.605,44.234 50.906,44.316 51.023,44.527L51.324,45.226C51.453,45.465 51.363,45.758 51.133,45.898L49.281,46.937C48.891,47.156 48.691,47.609 48.801,48.047L48.93,48.586C49.008,48.887 49.211,49.137 49.5,49.258C49.629,49.309 49.762,49.336 49.891,49.336C50.062,49.336 50.219,49.297 50.379,49.207L51.758,48.426C51.668,48.914 51.527,49.355 51.379,49.707C51.219,49.898 51.051,50.078 50.848,50.226L48.219,52.187L48.219,52.191ZM49.699,55.699C49.699,55.699 49.738,55.527 49.961,55.437L50,55.406L56.379,60.586L55.859,60.926L49.801,55.945C49.691,55.855 49.691,55.734 49.699,55.683L49.699,55.699ZM79.121,79.898C79.043,79.918 78.949,79.898 78.883,79.84L72.004,74.191L72.563,73.742L79.602,79.461L79.121,79.91L79.121,79.898Z" style="fill-rule:nonzero;"/></g><g transform="matrix(1,0,0,1,5,10)"><path d="M48.129,44.238C48.231,44.238 48.309,44.16 48.309,44.058C48.309,43.957 48.231,43.879 48.129,43.879C48.027,43.879 47.949,43.957 47.949,44.058C47.949,44.16 48.027,44.238 48.129,44.238Z" style="fill-rule:nonzero;"/></g><g transform="matrix(1,0,0,1,5,10)"><path d="M49.672,43.469C49.774,43.469 49.852,43.391 49.852,43.289C49.852,43.188 49.774,43.11 49.672,43.11C49.57,43.11 49.492,43.188 49.492,43.289C49.492,43.391 49.57,43.469 49.672,43.469Z" style="fill-rule:nonzero;"/></g><g transform="matrix(1,0,0,1,5,10)"><path d="M50.02,47.781C49.918,47.781 49.84,47.859 49.84,47.961C49.84,48.062 49.918,48.14 50.02,48.14C50.122,48.14 50.2,48.062 50.2,47.961C50.2,47.859 50.122,47.781 50.02,47.781Z" style="fill-rule:nonzero;"/></g><g transform="matrix(1,0,0,1,5,10)"><path d="M51.238,47.211C51.238,47.313 51.316,47.391 51.418,47.391C51.519,47.391 51.597,47.313 51.597,47.211C51.597,47.109 51.519,47.031 51.418,47.031C51.316,47.031 51.238,47.109 51.238,47.211Z" style="fill-rule:nonzero;"/></g></g><g transform="matrix(1,0,0,1,-415.748,-188.976)"><path d="M2255.12,351.153L2255.12,621.445C2255.12,642.811 2237.77,660.157 2216.41,660.157L1735.24,660.157L1479.06,817.874L1586.71,660.157L1303.59,660.157C1282.23,660.157 1264.88,642.811 1264.88,621.445L1264.88,351.153C1264.88,329.787 1282.23,312.441 1303.59,312.441L2216.41,312.441C2237.77,312.441 2255.12,329.787 2255.12,351.153Z" style="fill:none;stroke:black;stroke-width:5.56px;"/></g><g transform="matrix(127.778,0,0,127.778,882.198,332.809)"><path d="M0.161,-0.268L0.214,-0.268L0.214,-0.214L0.161,-0.214L0.161,-0.268ZM0.161,-0.321L0.214,-0.321L0.214,-0.268L0.161,-0.268L0.161,-0.321ZM0.214,-0.321L0.268,-0.321L0.268,-0.268L0.214,-0.268L0.214,-0.321ZM0.214,-0.268L0.268,-0.268L0.268,-0.214L0.214,-0.214L0.214,-0.268ZM0.214,-0.214L0.268,-0.214L0.268,-0.161L0.214,-0.161L0.214,-0.214ZM0.161,-0.214L0.214,-0.214L0.214,-0.161L0.161,-0.161L0.161,-0.214ZM0.161,-0.429L0.214,-0.429L0.214,-0.375L0.161,-0.375L0.161,-0.429ZM0.161,-0.375L0.214,-0.375L0.214,-0.321L0.161,-0.321L0.161,-0.375ZM0.107,-0.321L0.161,-0.321L0.161,-0.268L0.107,-0.268L0.107,-0.321ZM0.107,-0.375L0.161,-0.375L0.161,-0.321L0.107,-0.321L0.107,-0.375ZM0.107,-0.429L0.161,-0.429L0.161,-0.375L0.107,-0.375L0.107,-0.429ZM0,-0.536L0.054,-0.536L0.054,-0.482L0,-0.482L0,-0.536ZM0.054,-0.536L0.107,-0.536L0.107,-0.482L0.054,-0.482L0.054,-0.536ZM0.107,-0.536L0.161,-0.536L0.161,-0.482L0.107,-0.482L0.107,-0.536ZM0.107,-0.482L0.161,-0.482L0.161,-0.429L0.107,-0.429L0.107,-0.482ZM0.054,-0.482L0.107,-0.482L0.107,-0.429L0.054,-0.429L0.054,-0.482ZM0,-0.482L0.054,-0.482L0.054,-0.429L0,-0.429L0,-0.482ZM0,-0.429L0.054,-0.429L0.054,-0.375L0,-0.375L0,-0.429ZM0.054,-0.429L0.107,-0.429L0.107,-0.375L0.054,-0.375L0.054,-0.429ZM0.054,-0.375L0.107,-0.375L0.107,-0.321L0.054,-0.321L0.054,-0.375ZM0.054,-0.321L0.107,-0.321L0.107,-0.268L0.054,-0.268L0.054,-0.321ZM0,-0.321L0.054,-0.321L0.054,-0.268L0,-0.268L0,-0.321ZM0,-0.375L0.054,-0.375L0.054,-0.321L0,-0.321L0,-0.375ZM0,-0.268L0.054,-0.268L0.054,-0.214L0,-0.214L0,-0.268ZM0.054,-0.268L0.107,-0.268L0.107,-0.214L0.054,-0.214L0.054,-0.268ZM0.054,-0.214L0.107,-0.214L0.107,-0.161L0.054,-0.161L0.054,-0.214ZM0.054,-0.161L0.107,-0.161L0.107,-0.107L0.054,-0.107L0.054,-0.161ZM0.054,-0.107L0.107,-0.107L0.107,-0.054L0.054,-0.054L0.054,-0.107ZM0.054,-0.054L0.107,-0.054L0.107,-0L0.054,-0L0.054,-0.054ZM0,-0.054L0.054,-0.054L0.054,-0L0,-0L0,-0.054ZM0,-0.107L0.054,-0.107L0.054,-0.054L0,-0.054L0,-0.107ZM0,-0.161L0.054,-0.161L0.054,-0.107L0,-0.107L0,-0.161ZM0,-0.214L0.054,-0.214L0.054,-0.161L0,-0.161L0,-0.214ZM0.214,-0.161L0.268,-0.161L0.268,-0.107L0.214,-0.107L0.214,-0.161ZM0.214,-0.107L0.268,-0.107L0.268,-0.054L0.214,-0.054L0.214,-0.107ZM0.268,-0.161L0.321,-0.161L0.321,-0.107L0.268,-0.107L0.268,-0.161ZM0.268,-0.214L0.321,-0.214L0.321,-0.161L0.268,-0.161L0.268,-0.214ZM0.268,-0.107L0.321,-0.107L0.321,-0.054L0.268,-0.054L0.268,-0.107ZM0.268,-0.054L0.321,-0.054L0.321,-0L0.268,-0L0.268,-0.054ZM0.321,-0.054L0.375,-0.054L0.375,-0L0.321,-0L0.321,-0.054ZM0.375,-0.054L0.429,-0.054L0.429,-0L0.375,-0L0.375,-0.054ZM0.375,-0.107L0.429,-0.107L0.429,-0.054L0.375,-0.054L0.375,-0.107ZM0.375,-0.161L0.429,-0.161L0.429,-0.107L0.375,-0.107L0.375,-0.161ZM0.321,-0.161L0.375,-0.161L0.375,-0.107L0.321,-0.107L0.321,-0.161ZM0.321,-0.107L0.375,-0.107L0.375,-0.054L0.321,-0.054L0.321,-0.107ZM0.321,-0.214L0.375,-0.214L0.375,-0.161L0.321,-0.161L0.321,-0.214ZM0.375,-0.268L0.429,-0.268L0.429,-0.214L0.375,-0.214L0.375,-0.268ZM0.375,-0.321L0.429,-0.321L0.429,-0.268L0.375,-0.268L0.375,-0.321ZM0.375,-0.214L0.429,-0.214L0.429,-0.161L0.375,-0.161L0.375,-0.214ZM0.321,-0.268L0.375,-0.268L0.375,-0.214L0.321,-0.214L0.321,-0.268ZM0.321,-0.321L0.375,-0.321L0.375,-0.268L0.321,-0.268L0.321,-0.321ZM0.321,-0.375L0.375,-0.375L0.375,-0.321L0.321,-0.321L0.321,-0.375ZM0.375,-0.375L0.429,-0.375L0.429,-0.321L0.375,-0.321L0.375,-0.375ZM0.375,-0.429L0.429,-0.429L0.429,-0.375L0.375,-0.375L0.375,-0.429ZM0.321,-0.536L0.375,-0.536L0.375,-0.482L0.321,-0.482L0.321,-0.536ZM0.375,-0.536L0.429,-0.536L0.429,-0.482L0.375,-0.482L0.375,-0.536ZM0.375,-0.482L0.429,-0.482L0.429,-0.429L0.375,-0.429L0.375,-0.482ZM0.321,-0.482L0.375,-0.482L0.375,-0.429L0.321,-0.429L0.321,-0.482ZM0.321,-0.429L0.375,-0.429L0.375,-0.375L0.321,-0.375L0.321,-0.429Z" style="fill-rule:nonzero;"/></g><g transform="matrix(127.778,0,0,127.778,943.806,332.809)"><path d="M0.107,-0.429L0.161,-0.429L0.161,-0.375L0.107,-0.375L0.107,-0.429ZM0.054,-0.429L0.107,-0.429L0.107,-0.375L0.054,-0.375L0.054,-0.429ZM0.054,-0.375L0.107,-0.375L0.107,-0.321L0.054,-0.321L0.054,-0.375ZM0.107,-0.375L0.161,-0.375L0.161,-0.321L0.107,-0.321L0.107,-0.375ZM0.161,-0.429L0.214,-0.429L0.214,-0.375L0.161,-0.375L0.161,-0.429ZM0.214,-0.429L0.268,-0.429L0.268,-0.375L0.214,-0.375L0.214,-0.429ZM0.268,-0.429L0.321,-0.429L0.321,-0.375L0.268,-0.375L0.268,-0.429ZM0.268,-0.375L0.321,-0.375L0.321,-0.321L0.268,-0.321L0.268,-0.375ZM0.214,-0.375L0.268,-0.375L0.268,-0.321L0.214,-0.321L0.214,-0.375ZM0.321,-0.375L0.375,-0.375L0.375,-0.321L0.321,-0.321L0.321,-0.375ZM0.321,-0.321L0.375,-0.321L0.375,-0.268L0.321,-0.268L0.321,-0.321ZM0.321,-0.107L0.375,-0.107L0.375,-0.054L0.321,-0.054L0.321,-0.107ZM0.268,-0.107L0.321,-0.107L0.321,-0.054L0.268,-0.054L0.268,-0.107ZM0.268,-0.321L0.321,-0.321L0.321,-0.268L0.268,-0.268L0.268,-0.321ZM0.214,-0.107L0.268,-0.107L0.268,-0.054L0.214,-0.054L0.214,-0.107ZM0.268,-0.054L0.321,-0.054L0.321,-0L0.268,-0L0.268,-0.054ZM0.214,-0.054L0.268,-0.054L0.268,-0L0.214,-0L0.214,-0.054ZM0.161,-0.054L0.214,-0.054L0.214,-0L0.161,-0L0.161,-0.054ZM0.107,-0.054L0.161,-0.054L0.161,-0L0.107,-0L0.107,-0.054ZM0.054,-0.054L0.107,-0.054L0.107,-0L0.054,-0L0.054,-0.054ZM0.054,-0.107L0.107,-0.107L0.107,-0.054L0.054,-0.054L0.054,-0.107ZM0.107,-0.107L0.161,-0.107L0.161,-0.054L0.107,-0.054L0.107,-0.107ZM0.054,-0.161L0.107,-0.161L0.107,-0.107L0.054,-0.107L0.054,-0.161ZM0,-0.107L0.054,-0.107L0.054,-0.054L0,-0.054L0,-0.107ZM0,-0.161L0.054,-0.161L0.054,-0.107L0,-0.107L0,-0.161ZM0,-0.214L0.054,-0.214L0.054,-0.161L0,-0.161L0,-0.214ZM0,-0.268L0.054,-0.268L0.054,-0.214L0,-0.214L0,-0.268ZM0,-0.321L0.054,-0.321L0.054,-0.268L0,-0.268L0,-0.321ZM0,-0.375L0.054,-0.375L0.054,-0.321L0,-0.321L0,-0.375ZM0.054,-0.321L0.107,-0.321L0.107,-0.268L0.054,-0.268L0.054,-0.321ZM0.054,-0.268L0.107,-0.268L0.107,-0.214L0.054,-0.214L0.054,-0.268ZM0.054,-0.214L0.107,-0.214L0.107,-0.161L0.054,-0.161L0.054,-0.214ZM0.161,-0.107L0.214,-0.107L0.214,-0.054L0.161,-0.054L0.161,-0.107ZM0.161,-0.375L0.214,-0.375L0.214,-0.321L0.161,-0.321L0.161,-0.375ZM0.268,-0.268L0.321,-0.268L0.321,-0.214L0.268,-0.214L0.268,-0.268ZM0.321,-0.268L0.375,-0.268L0.375,-0.214L0.321,-0.214L0.321,-0.268ZM0.107,-0.214L0.161,-0.214L0.161,-0.161L0.107,-0.161L0.107,-0.214ZM0.161,-0.214L0.214,-0.214L0.214,-0.161L0.161,-0.161L0.161,-0.214ZM0.214,-0.214L0.268,-0.214L0.268,-0.161L0.214,-0.161L0.214,-0.214ZM0.268,-0.214L0.321,-0.214L0.321,-0.161L0.268,-0.161L0.268,-0.214ZM0.321,-0.214L0.375,-0.214L0.375,-0.161L0.321,-0.161L0.321,-0.214ZM0.214,-0.268L0.268,-0.268L0.268,-0.214L0.214,-0.214L0.214,-0.268ZM0.161,-0.268L0.214,-0.268L0.214,-0.214L0.161,-0.214L0.161,-0.268ZM0.107,-0.268L0.161,-0.268L0.161,-0.214L0.107,-0.214L0.107,-0.268Z" style="fill-rule:nonzero;"/></g><g transform="matrix(127.778,0,0,127.778,998.567,332.809)"><path d="M0,-0.429L0.054,-0.429L0.054,-0.375L0,-0.375L0,-0.429ZM0,-0.375L0.054,-0.375L0.054,-0.321L0,-0.321L0,-0.375ZM0,-0.321L0.054,-0.321L0.054,-0.268L0,-0.268L0,-0.321ZM0,-0.268L0.054,-0.268L0.054,-0.214L0,-0.214L0,-0.268ZM0,-0.214L0.054,-0.214L0.054,-0.161L0,-0.161L0,-0.214ZM0,-0.161L0.054,-0.161L0.054,-0.107L0,-0.107L0,-0.161ZM0.054,-0.161L0.107,-0.161L0.107,-0.107L0.054,-0.107L0.054,-0.161ZM0.054,-0.107L0.107,-0.107L0.107,-0.054L0.054,-0.054L0.054,-0.107ZM0.107,-0.107L0.161,-0.107L0.161,-0.054L0.107,-0.054L0.107,-0.107ZM0.107,-0.054L0.161,-0.054L0.161,-0L0.107,-0L0.107,-0.054ZM0.161,-0.107L0.214,-0.107L0.214,-0.054L0.161,-0.054L0.161,-0.107ZM0.214,-0.161L0.268,-0.161L0.268,-0.107L0.214,-0.107L0.214,-0.161ZM0.268,-0.321L0.321,-0.321L0.321,-0.268L0.268,-0.268L0.268,-0.321ZM0.214,-0.429L0.268,-0.429L0.268,-0.375L0.214,-0.375L0.214,-0.429ZM0.268,-0.429L0.321,-0.429L0.321,-0.375L0.268,-0.375L0.268,-0.429ZM0.268,-0.375L0.321,-0.375L0.321,-0.321L0.268,-0.321L0.268,-0.375ZM0.268,-0.268L0.321,-0.268L0.321,-0.214L0.268,-0.214L0.268,-0.268ZM0.268,-0.214L0.321,-0.214L0.321,-0.161L0.268,-0.161L0.268,-0.214ZM0.214,-0.214L0.268,-0.214L0.268,-0.161L0.214,-0.161L0.214,-0.214ZM0.214,-0.268L0.268,-0.268L0.268,-0.214L0.214,-0.214L0.214,-0.268ZM0.214,-0.321L0.268,-0.321L0.268,-0.268L0.214,-0.268L0.214,-0.321ZM0.214,-0.375L0.268,-0.375L0.268,-0.321L0.214,-0.321L0.214,-0.375ZM0.268,-0.161L0.321,-0.161L0.321,-0.107L0.268,-0.107L0.268,-0.161ZM0.375,-0.107L0.429,-0.107L0.429,-0.054L0.375,-0.054L0.375,-0.107ZM0.375,-0.054L0.429,-0.054L0.429,-0L0.375,-0L0.375,-0.054ZM0.429,-0.107L0.482,-0.107L0.482,-0.054L0.429,-0.054L0.429,-0.107ZM0.429,-0.161L0.482,-0.161L0.482,-0.107L0.429,-0.107L0.429,-0.161ZM0.482,-0.161L0.536,-0.161L0.536,-0.107L0.482,-0.107L0.482,-0.161ZM0.482,-0.214L0.536,-0.214L0.536,-0.161L0.482,-0.161L0.482,-0.214ZM0.482,-0.268L0.536,-0.268L0.536,-0.214L0.482,-0.214L0.482,-0.268ZM0.482,-0.321L0.536,-0.321L0.536,-0.268L0.482,-0.268L0.482,-0.321ZM0.482,-0.375L0.536,-0.375L0.536,-0.321L0.482,-0.321L0.482,-0.375ZM0.482,-0.429L0.536,-0.429L0.536,-0.375L0.482,-0.375L0.482,-0.429ZM0.054,-0.375L0.107,-0.375L0.107,-0.321L0.054,-0.321L0.054,-0.375ZM0.054,-0.321L0.107,-0.321L0.107,-0.268L0.054,-0.268L0.054,-0.321ZM0.054,-0.268L0.107,-0.268L0.107,-0.214L0.054,-0.214L0.054,-0.268ZM0.054,-0.214L0.107,-0.214L0.107,-0.161L0.054,-0.161L0.054,-0.214ZM0.054,-0.429L0.107,-0.429L0.107,-0.375L0.054,-0.375L0.054,-0.429ZM0.429,-0.429L0.482,-0.429L0.482,-0.375L0.429,-0.375L0.429,-0.429ZM0.429,-0.375L0.482,-0.375L0.482,-0.321L0.429,-0.321L0.429,-0.375ZM0.429,-0.321L0.482,-0.321L0.482,-0.268L0.429,-0.268L0.429,-0.321ZM0.429,-0.268L0.482,-0.268L0.482,-0.214L0.429,-0.214L0.429,-0.268ZM0.429,-0.214L0.482,-0.214L0.482,-0.161L0.429,-0.161L0.429,-0.214ZM0.161,-0.054L0.214,-0.054L0.214,-0L0.161,-0L0.161,-0.054ZM0.214,-0.107L0.268,-0.107L0.268,-0.054L0.214,-0.054L0.214,-0.107ZM0.268,-0.107L0.321,-0.107L0.321,-0.054L0.268,-0.054L0.268,-0.107ZM0.321,-0.107L0.375,-0.107L0.375,-0.054L0.321,-0.054L0.321,-0.107ZM0.321,-0.054L0.375,-0.054L0.375,-0L0.321,-0L0.321,-0.054ZM0.107,-0.161L0.161,-0.161L0.161,-0.107L0.107,-0.107L0.107,-0.161ZM0.375,-0.161L0.429,-0.161L0.429,-0.107L0.375,-0.107L0.375,-0.161Z" style="fill-rule:nonzero;"/></g><g transform="matrix(127.778,0,0,127.778,1101.25,332.809)"><path d="M0,-0.536L0.054,-0.536L0.054,-0.482L0,-0.482L0,-0.536ZM0.054,-0.536L0.107,-0.536L0.107,-0.482L0.054,-0.482L0.054,-0.536ZM0.107,-0.536L0.161,-0.536L0.161,-0.482L0.107,-0.482L0.107,-0.536ZM0.161,-0.536L0.214,-0.536L0.214,-0.482L0.161,-0.482L0.161,-0.536ZM0.214,-0.536L0.268,-0.536L0.268,-0.482L0.214,-0.482L0.214,-0.536ZM0.268,-0.536L0.321,-0.536L0.321,-0.482L0.268,-0.482L0.268,-0.536ZM0.268,-0.482L0.321,-0.482L0.321,-0.429L0.268,-0.429L0.268,-0.482ZM0.214,-0.482L0.268,-0.482L0.268,-0.429L0.214,-0.429L0.214,-0.482ZM0.161,-0.482L0.214,-0.482L0.214,-0.429L0.161,-0.429L0.161,-0.482ZM0.107,-0.482L0.161,-0.482L0.161,-0.429L0.107,-0.429L0.107,-0.482ZM0.054,-0.482L0.107,-0.482L0.107,-0.429L0.054,-0.429L0.054,-0.482ZM0,-0.482L0.054,-0.482L0.054,-0.429L0,-0.429L0,-0.482ZM0.321,-0.482L0.375,-0.482L0.375,-0.429L0.321,-0.429L0.321,-0.482ZM0.268,-0.429L0.321,-0.429L0.321,-0.375L0.268,-0.375L0.268,-0.429ZM0.321,-0.429L0.375,-0.429L0.375,-0.375L0.321,-0.375L0.321,-0.429ZM0.321,-0.375L0.375,-0.375L0.375,-0.321L0.321,-0.321L0.321,-0.375ZM0.321,-0.321L0.375,-0.321L0.375,-0.268L0.321,-0.268L0.321,-0.321ZM0.268,-0.321L0.321,-0.321L0.321,-0.268L0.268,-0.268L0.268,-0.321ZM0.268,-0.375L0.321,-0.375L0.321,-0.321L0.268,-0.321L0.268,-0.375ZM0.268,-0.268L0.321,-0.268L0.321,-0.214L0.268,-0.214L0.268,-0.268ZM0.268,-0.214L0.321,-0.214L0.321,-0.161L0.268,-0.161L0.268,-0.214ZM0.214,-0.214L0.268,-0.214L0.268,-0.161L0.214,-0.161L0.214,-0.214ZM0.214,-0.268L0.268,-0.268L0.268,-0.214L0.214,-0.214L0.214,-0.268ZM0.161,-0.268L0.214,-0.268L0.214,-0.214L0.161,-0.214L0.161,-0.268ZM0.161,-0.214L0.214,-0.214L0.214,-0.161L0.161,-0.161L0.161,-0.214ZM0.107,-0.214L0.161,-0.214L0.161,-0.161L0.107,-0.161L0.107,-0.214ZM0.107,-0.268L0.161,-0.268L0.161,-0.214L0.107,-0.214L0.107,-0.268ZM0.054,-0.268L0.107,-0.268L0.107,-0.214L0.054,-0.214L0.054,-0.268ZM0,-0.268L0.054,-0.268L0.054,-0.214L0,-0.214L0,-0.268ZM0,-0.214L0.054,-0.214L0.054,-0.161L0,-0.161L0,-0.214ZM0.054,-0.214L0.107,-0.214L0.107,-0.161L0.054,-0.161L0.054,-0.214ZM0,-0.429L0.054,-0.429L0.054,-0.375L0,-0.375L0,-0.429ZM0.054,-0.429L0.107,-0.429L0.107,-0.375L0.054,-0.375L0.054,-0.429ZM0.054,-0.375L0.107,-0.375L0.107,-0.321L0.054,-0.321L0.054,-0.375ZM0.054,-0.321L0.107,-0.321L0.107,-0.268L0.054,-0.268L0.054,-0.321ZM0,-0.375L0.054,-0.375L0.054,-0.321L0,-0.321L0,-0.375ZM0,-0.321L0.054,-0.321L0.054,-0.268L0,-0.268L0,-0.321ZM0,-0.161L0.054,-0.161L0.054,-0.107L0,-0.107L0,-0.161ZM0.054,-0.161L0.107,-0.161L0.107,-0.107L0.054,-0.107L0.054,-0.161ZM0.054,-0.107L0.107,-0.107L0.107,-0.054L0.054,-0.054L0.054,-0.107ZM0.054,-0.054L0.107,-0.054L0.107,-0L0.054,-0L0.054,-0.054ZM0,-0.054L0.054,-0.054L0.054,-0L0,-0L0,-0.054ZM0,-0.107L0.054,-0.107L0.054,-0.054L0,-0.054L0,-0.107ZM0.321,-0.268L0.375,-0.268L0.375,-0.214L0.321,-0.214L0.321,-0.268Z" style="fill-rule:nonzero;"/></g><g transform="matrix(127.778,0,0,127.778,1156.01,332.809)"><path d="M0,-0.375L0.054,-0.375L0.054,-0.321L0,-0.321L0,-0.375ZM0,-0.429L0.054,-0.429L0.054,-0.375L0,-0.375L0,-0.429ZM0.054,-0.429L0.107,-0.429L0.107,-0.375L0.054,-0.375L0.054,-0.429ZM0.054,-0.375L0.107,-0.375L0.107,-0.321L0.054,-0.321L0.054,-0.375ZM0.054,-0.321L0.107,-0.321L0.107,-0.268L0.054,-0.268L0.054,-0.321ZM0.054,-0.268L0.107,-0.268L0.107,-0.214L0.054,-0.214L0.054,-0.268ZM0.054,-0.214L0.107,-0.214L0.107,-0.161L0.054,-0.161L0.054,-0.214ZM0,-0.214L0.054,-0.214L0.054,-0.161L0,-0.161L0,-0.214ZM0,-0.268L0.054,-0.268L0.054,-0.214L0,-0.214L0,-0.268ZM0,-0.321L0.054,-0.321L0.054,-0.268L0,-0.268L0,-0.321ZM0,-0.161L0.054,-0.161L0.054,-0.107L0,-0.107L0,-0.161ZM0.054,-0.161L0.107,-0.161L0.107,-0.107L0.054,-0.107L0.054,-0.161ZM0.054,-0.107L0.107,-0.107L0.107,-0.054L0.054,-0.054L0.054,-0.107ZM0.054,-0.054L0.107,-0.054L0.107,-0L0.054,-0L0.054,-0.054ZM0,-0.054L0.054,-0.054L0.054,-0L0,-0L0,-0.054ZM0,-0.107L0.054,-0.107L0.054,-0.054L0,-0.054L0,-0.107ZM0.268,-0.054L0.321,-0.054L0.321,-0L0.268,-0L0.268,-0.054ZM0.321,-0.054L0.375,-0.054L0.375,-0L0.321,-0L0.321,-0.054ZM0.321,-0.107L0.375,-0.107L0.375,-0.054L0.321,-0.054L0.321,-0.107ZM0.321,-0.161L0.375,-0.161L0.375,-0.107L0.321,-0.107L0.321,-0.161ZM0.321,-0.214L0.375,-0.214L0.375,-0.161L0.321,-0.161L0.321,-0.214ZM0.321,-0.268L0.375,-0.268L0.375,-0.214L0.321,-0.214L0.321,-0.268ZM0.321,-0.321L0.375,-0.321L0.375,-0.268L0.321,-0.268L0.321,-0.321ZM0.321,-0.375L0.375,-0.375L0.375,-0.321L0.321,-0.321L0.321,-0.375ZM0.268,-0.268L0.321,-0.268L0.321,-0.214L0.268,-0.214L0.268,-0.268ZM0.268,-0.214L0.321,-0.214L0.321,-0.161L0.268,-0.161L0.268,-0.214ZM0.268,-0.161L0.321,-0.161L0.321,-0.107L0.268,-0.107L0.268,-0.161ZM0.268,-0.107L0.321,-0.107L0.321,-0.054L0.268,-0.054L0.268,-0.107ZM0.268,-0.321L0.321,-0.321L0.321,-0.268L0.268,-0.268L0.268,-0.321ZM0.107,-0.375L0.161,-0.375L0.161,-0.321L0.107,-0.321L0.107,-0.375ZM0.161,-0.375L0.214,-0.375L0.214,-0.321L0.161,-0.321L0.161,-0.375ZM0.214,-0.375L0.268,-0.375L0.268,-0.321L0.214,-0.321L0.214,-0.375ZM0.214,-0.429L0.268,-0.429L0.268,-0.375L0.214,-0.375L0.214,-0.429ZM0.268,-0.429L0.321,-0.429L0.321,-0.375L0.268,-0.375L0.268,-0.429ZM0.268,-0.375L0.321,-0.375L0.321,-0.321L0.268,-0.321L0.268,-0.375ZM0.161,-0.429L0.214,-0.429L0.214,-0.375L0.161,-0.375L0.161,-0.429ZM0,-0.536L0.054,-0.536L0.054,-0.482L0,-0.482L0,-0.536ZM0.054,-0.536L0.107,-0.536L0.107,-0.482L0.054,-0.482L0.054,-0.536ZM0.054,-0.482L0.107,-0.482L0.107,-0.429L0.054,-0.429L0.054,-0.482ZM0,-0.482L0.054,-0.482L0.054,-0.429L0,-0.429L0,-0.482Z" style="fill-rule:nonzero;"/></g><g transform="matrix(127.778,0,0,127.778,1210.77,332.809)"><path d="M0.107,-0.429L0.161,-0.429L0.161,-0.375L0.107,-0.375L0.107,-0.429ZM0.054,-0.429L0.107,-0.429L0.107,-0.375L0.054,-0.375L0.054,-0.429ZM0.054,-0.375L0.107,-0.375L0.107,-0.321L0.054,-0.321L0.054,-0.375ZM0.107,-0.375L0.161,-0.375L0.161,-0.321L0.107,-0.321L0.107,-0.375ZM0.161,-0.429L0.214,-0.429L0.214,-0.375L0.161,-0.375L0.161,-0.429ZM0.214,-0.429L0.268,-0.429L0.268,-0.375L0.214,-0.375L0.214,-0.429ZM0.268,-0.429L0.321,-0.429L0.321,-0.375L0.268,-0.375L0.268,-0.429ZM0.268,-0.375L0.321,-0.375L0.321,-0.321L0.268,-0.321L0.268,-0.375ZM0.214,-0.375L0.268,-0.375L0.268,-0.321L0.214,-0.321L0.214,-0.375ZM0.268,-0.268L0.321,-0.268L0.321,-0.214L0.268,-0.214L0.268,-0.268ZM0.321,-0.375L0.375,-0.375L0.375,-0.321L0.321,-0.321L0.321,-0.375ZM0.321,-0.321L0.375,-0.321L0.375,-0.268L0.321,-0.268L0.321,-0.321ZM0.321,-0.268L0.375,-0.268L0.375,-0.214L0.321,-0.214L0.321,-0.268ZM0.321,-0.214L0.375,-0.214L0.375,-0.161L0.321,-0.161L0.321,-0.214ZM0.321,-0.161L0.375,-0.161L0.375,-0.107L0.321,-0.107L0.321,-0.161ZM0.321,-0.107L0.375,-0.107L0.375,-0.054L0.321,-0.054L0.321,-0.107ZM0.268,-0.107L0.321,-0.107L0.321,-0.054L0.268,-0.054L0.268,-0.107ZM0.268,-0.161L0.321,-0.161L0.321,-0.107L0.268,-0.107L0.268,-0.161ZM0.268,-0.214L0.321,-0.214L0.321,-0.161L0.268,-0.161L0.268,-0.214ZM0.268,-0.321L0.321,-0.321L0.321,-0.268L0.268,-0.268L0.268,-0.321ZM0.214,-0.107L0.268,-0.107L0.268,-0.054L0.214,-0.054L0.214,-0.107ZM0.268,-0.054L0.321,-0.054L0.321,-0L0.268,-0L0.268,-0.054ZM0.214,-0.054L0.268,-0.054L0.268,-0L0.214,-0L0.214,-0.054ZM0.161,-0.054L0.214,-0.054L0.214,-0L0.161,-0L0.161,-0.054ZM0.107,-0.054L0.161,-0.054L0.161,-0L0.107,-0L0.107,-0.054ZM0.054,-0.054L0.107,-0.054L0.107,-0L0.054,-0L0.054,-0.054ZM0.054,-0.107L0.107,-0.107L0.107,-0.054L0.054,-0.054L0.054,-0.107ZM0.107,-0.107L0.161,-0.107L0.161,-0.054L0.107,-0.054L0.107,-0.107ZM0.054,-0.161L0.107,-0.161L0.107,-0.107L0.054,-0.107L0.054,-0.161ZM0,-0.107L0.054,-0.107L0.054,-0.054L0,-0.054L0,-0.107ZM0,-0.161L0.054,-0.161L0.054,-0.107L0,-0.107L0,-0.161ZM0,-0.214L0.054,-0.214L0.054,-0.161L0,-0.161L0,-0.214ZM0,-0.268L0.054,-0.268L0.054,-0.214L0,-0.214L0,-0.268ZM0,-0.321L0.054,-0.321L0.054,-0.268L0,-0.268L0,-0.321ZM0,-0.375L0.054,-0.375L0.054,-0.321L0,-0.321L0,-0.375ZM0.054,-0.321L0.107,-0.321L0.107,-0.268L0.054,-0.268L0.054,-0.321ZM0.054,-0.268L0.107,-0.268L0.107,-0.214L0.054,-0.214L0.054,-0.268ZM0.054,-0.214L0.107,-0.214L0.107,-0.161L0.054,-0.161L0.054,-0.214ZM0.161,-0.107L0.214,-0.107L0.214,-0.054L0.161,-0.054L0.161,-0.107ZM0.161,-0.375L0.214,-0.375L0.214,-0.321L0.161,-0.321L0.161,-0.375Z" style="fill-rule:nonzero;"/></g><g transform="matrix(127.778,0,0,127.778,1265.53,332.809)"><path d="M0,-0.375L0.054,-0.375L0.054,-0.321L0,-0.321L0,-0.375ZM0,-0.429L0.054,-0.429L0.054,-0.375L0,-0.375L0,-0.429ZM0.054,-0.429L0.107,-0.429L0.107,-0.375L0.054,-0.375L0.054,-0.429ZM0.054,-0.375L0.107,-0.375L0.107,-0.321L0.054,-0.321L0.054,-0.375ZM0.054,-0.321L0.107,-0.321L0.107,-0.268L0.054,-0.268L0.054,-0.321ZM0.054,-0.268L0.107,-0.268L0.107,-0.214L0.054,-0.214L0.054,-0.268ZM0.054,-0.214L0.107,-0.214L0.107,-0.161L0.054,-0.161L0.054,-0.214ZM0,-0.214L0.054,-0.214L0.054,-0.161L0,-0.161L0,-0.214ZM0,-0.268L0.054,-0.268L0.054,-0.214L0,-0.214L0,-0.268ZM0,-0.321L0.054,-0.321L0.054,-0.268L0,-0.268L0,-0.321ZM0,-0.161L0.054,-0.161L0.054,-0.107L0,-0.107L0,-0.161ZM0.054,-0.161L0.107,-0.161L0.107,-0.107L0.054,-0.107L0.054,-0.161ZM0.054,-0.107L0.107,-0.107L0.107,-0.054L0.054,-0.054L0.054,-0.107ZM0.054,-0.054L0.107,-0.054L0.107,-0L0.054,-0L0.054,-0.054ZM0,-0.054L0.054,-0.054L0.054,-0L0,-0L0,-0.054ZM0,-0.107L0.054,-0.107L0.054,-0.054L0,-0.054L0,-0.107ZM0.268,-0.054L0.321,-0.054L0.321,-0L0.268,-0L0.268,-0.054ZM0.321,-0.054L0.375,-0.054L0.375,-0L0.321,-0L0.321,-0.054ZM0.321,-0.107L0.375,-0.107L0.375,-0.054L0.321,-0.054L0.321,-0.107ZM0.321,-0.161L0.375,-0.161L0.375,-0.107L0.321,-0.107L0.321,-0.161ZM0.321,-0.214L0.375,-0.214L0.375,-0.161L0.321,-0.161L0.321,-0.214ZM0.321,-0.268L0.375,-0.268L0.375,-0.214L0.321,-0.214L0.321,-0.268ZM0.321,-0.321L0.375,-0.321L0.375,-0.268L0.321,-0.268L0.321,-0.321ZM0.321,-0.375L0.375,-0.375L0.375,-0.321L0.321,-0.321L0.321,-0.375ZM0.268,-0.268L0.321,-0.268L0.321,-0.214L0.268,-0.214L0.268,-0.268ZM0.268,-0.214L0.321,-0.214L0.321,-0.161L0.268,-0.161L0.268,-0.214ZM0.268,-0.161L0.321,-0.161L0.321,-0.107L0.268,-0.107L0.268,-0.161ZM0.268,-0.107L0.321,-0.107L0.321,-0.054L0.268,-0.054L0.268,-0.107ZM0.268,-0.321L0.321,-0.321L0.321,-0.268L0.268,-0.268L0.268,-0.321ZM0.107,-0.375L0.161,-0.375L0.161,-0.321L0.107,-0.321L0.107,-0.375ZM0.161,-0.375L0.214,-0.375L0.214,-0.321L0.161,-0.321L0.161,-0.375ZM0.214,-0.375L0.268,-0.375L0.268,-0.321L0.214,-0.321L0.214,-0.375ZM0.214,-0.429L0.268,-0.429L0.268,-0.375L0.214,-0.375L0.214,-0.429ZM0.268,-0.429L0.321,-0.429L0.321,-0.375L0.268,-0.375L0.268,-0.429ZM0.268,-0.375L0.321,-0.375L0.321,-0.321L0.268,-0.321L0.268,-0.375ZM0.161,-0.429L0.214,-0.429L0.214,-0.375L0.161,-0.375L0.161,-0.429Z" style="fill-rule:nonzero;"/></g><g transform="matrix(127.778,0,0,127.778,1320.29,332.809)"><path d="M0.107,-0.429L0.161,-0.429L0.161,-0.375L0.107,-0.375L0.107,-0.429ZM0.054,-0.429L0.107,-0.429L0.107,-0.375L0.054,-0.375L0.054,-0.429ZM0.054,-0.375L0.107,-0.375L0.107,-0.321L0.054,-0.321L0.054,-0.375ZM0.107,-0.375L0.161,-0.375L0.161,-0.321L0.107,-0.321L0.107,-0.375ZM0.161,-0.429L0.214,-0.429L0.214,-0.375L0.161,-0.375L0.161,-0.429ZM0.214,-0.429L0.268,-0.429L0.268,-0.375L0.214,-0.375L0.214,-0.429ZM0.268,-0.429L0.321,-0.429L0.321,-0.375L0.268,-0.375L0.268,-0.429ZM0.268,-0.375L0.321,-0.375L0.321,-0.321L0.268,-0.321L0.268,-0.375ZM0.214,-0.375L0.268,-0.375L0.268,-0.321L0.214,-0.321L0.214,-0.375ZM0.321,-0.375L0.375,-0.375L0.375,-0.321L0.321,-0.321L0.321,-0.375ZM0.321,-0.321L0.375,-0.321L0.375,-0.268L0.321,-0.268L0.321,-0.321ZM0.321,-0.107L0.375,-0.107L0.375,-0.054L0.321,-0.054L0.321,-0.107ZM0.268,-0.107L0.321,-0.107L0.321,-0.054L0.268,-0.054L0.268,-0.107ZM0.268,-0.321L0.321,-0.321L0.321,-0.268L0.268,-0.268L0.268,-0.321ZM0.214,-0.107L0.268,-0.107L0.268,-0.054L0.214,-0.054L0.214,-0.107ZM0.268,-0.054L0.321,-0.054L0.321,-0L0.268,-0L0.268,-0.054ZM0.214,-0.054L0.268,-0.054L0.268,-0L0.214,-0L0.214,-0.054ZM0.161,-0.054L0.214,-0.054L0.214,-0L0.161,-0L0.161,-0.054ZM0.107,-0.054L0.161,-0.054L0.161,-0L0.107,-0L0.107,-0.054ZM0.054,-0.054L0.107,-0.054L0.107,-0L0.054,-0L0.054,-0.054ZM0.054,-0.107L0.107,-0.107L0.107,-0.054L0.054,-0.054L0.054,-0.107ZM0.107,-0.107L0.161,-0.107L0.161,-0.054L0.107,-0.054L0.107,-0.107ZM0.054,-0.161L0.107,-0.161L0.107,-0.107L0.054,-0.107L0.054,-0.161ZM0,-0.107L0.054,-0.107L0.054,-0.054L0,-0.054L0,-0.107ZM0,-0.161L0.054,-0.161L0.054,-0.107L0,-0.107L0,-0.161ZM0,-0.214L0.054,-0.214L0.054,-0.161L0,-0.161L0,-0.214ZM0,-0.268L0.054,-0.268L0.054,-0.214L0,-0.214L0,-0.268ZM0,-0.321L0.054,-0.321L0.054,-0.268L0,-0.268L0,-0.321ZM0,-0.375L0.054,-0.375L0.054,-0.321L0,-0.321L0,-0.375ZM0.054,-0.321L0.107,-0.321L0.107,-0.268L0.054,-0.268L0.054,-0.321ZM0.054,-0.268L0.107,-0.268L0.107,-0.214L0.054,-0.214L0.054,-0.268ZM0.054,-0.214L0.107,-0.214L0.107,-0.161L0.054,-0.161L0.054,-0.214ZM0.161,-0.107L0.214,-0.107L0.214,-0.054L0.161,-0.054L0.161,-0.107ZM0.161,-0.375L0.214,-0.375L0.214,-0.321L0.161,-0.321L0.161,-0.375ZM0.268,-0.268L0.321,-0.268L0.321,-0.214L0.268,-0.214L0.268,-0.268ZM0.321,-0.268L0.375,-0.268L0.375,-0.214L0.321,-0.214L0.321,-0.268ZM0.107,-0.214L0.161,-0.214L0.161,-0.161L0.107,-0.161L0.107,-0.214ZM0.161,-0.214L0.214,-0.214L0.214,-0.161L0.161,-0.161L0.161,-0.214ZM0.214,-0.214L0.268,-0.214L0.268,-0.161L0.214,-0.161L0.214,-0.214ZM0.268,-0.214L0.321,-0.214L0.321,-0.161L0.268,-0.161L0.268,-0.214ZM0.321,-0.214L0.375,-0.214L0.375,-0.161L0.321,-0.161L0.321,-0.214ZM0.214,-0.268L0.268,-0.268L0.268,-0.214L0.214,-0.214L0.214,-0.268ZM0.161,-0.268L0.214,-0.268L0.214,-0.214L0.161,-0.214L0.161,-0.268ZM0.107,-0.268L0.161,-0.268L0.161,-0.214L0.107,-0.214L0.107,-0.268Z" style="fill-rule:nonzero;"/></g><g transform="matrix(127.778,0,0,127.778,1375.06,332.809)"><path d="M0,-0.107L0.054,-0.107L0.054,-0.054L0,-0.054L0,-0.107ZM0.054,-0.107L0.107,-0.107L0.107,-0.054L0.054,-0.054L0.054,-0.107ZM0.054,-0.054L0.107,-0.054L0.107,-0L0.054,-0L0.054,-0.054ZM0,-0.054L0.054,-0.054L0.054,-0L0,-0L0,-0.054ZM0.054,-0L0.107,-0L0.107,0.054L0.054,0.054L0.054,-0ZM0,0.054L0.054,0.054L0.054,0.107L0,0.107L0,0.054Z" style="fill-rule:nonzero;"/></g><g transform="matrix(127.778,0,0,127.778,1422.97,332.809)"><path d="M0,-0.429L0.054,-0.429L0.054,-0.375L0,-0.375L0,-0.429ZM0,-0.375L0.054,-0.375L0.054,-0.321L0,-0.321L0,-0.375ZM0,-0.321L0.054,-0.321L0.054,-0.268L0,-0.268L0,-0.321ZM0,-0.268L0.054,-0.268L0.054,-0.214L0,-0.214L0,-0.268ZM0,-0.214L0.054,-0.214L0.054,-0.161L0,-0.161L0,-0.214ZM0,-0.161L0.054,-0.161L0.054,-0.107L0,-0.107L0,-0.161ZM0.054,-0.161L0.107,-0.161L0.107,-0.107L0.054,-0.107L0.054,-0.161ZM0.054,-0.107L0.107,-0.107L0.107,-0.054L0.054,-0.054L0.054,-0.107ZM0.107,-0.107L0.161,-0.107L0.161,-0.054L0.107,-0.054L0.107,-0.107ZM0.107,-0.054L0.161,-0.054L0.161,-0L0.107,-0L0.107,-0.054ZM0.161,-0.107L0.214,-0.107L0.214,-0.054L0.161,-0.054L0.161,-0.107ZM0.214,-0.161L0.268,-0.161L0.268,-0.107L0.214,-0.107L0.214,-0.161ZM0.268,-0.321L0.321,-0.321L0.321,-0.268L0.268,-0.268L0.268,-0.321ZM0.214,-0.429L0.268,-0.429L0.268,-0.375L0.214,-0.375L0.214,-0.429ZM0.268,-0.429L0.321,-0.429L0.321,-0.375L0.268,-0.375L0.268,-0.429ZM0.268,-0.375L0.321,-0.375L0.321,-0.321L0.268,-0.321L0.268,-0.375ZM0.268,-0.268L0.321,-0.268L0.321,-0.214L0.268,-0.214L0.268,-0.268ZM0.268,-0.214L0.321,-0.214L0.321,-0.161L0.268,-0.161L0.268,-0.214ZM0.214,-0.214L0.268,-0.214L0.268,-0.161L0.214,-0.161L0.214,-0.214ZM0.214,-0.268L0.268,-0.268L0.268,-0.214L0.214,-0.214L0.214,-0.268ZM0.214,-0.321L0.268,-0.321L0.268,-0.268L0.214,-0.268L0.214,-0.321ZM0.214,-0.375L0.268,-0.375L0.268,-0.321L0.214,-0.321L0.214,-0.375ZM0.268,-0.161L0.321,-0.161L0.321,-0.107L0.268,-0.107L0.268,-0.161ZM0.375,-0.107L0.429,-0.107L0.429,-0.054L0.375,-0.054L0.375,-0.107ZM0.375,-0.054L0.429,-0.054L0.429,-0L0.375,-0L0.375,-0.054ZM0.429,-0.107L0.482,-0.107L0.482,-0.054L0.429,-0.054L0.429,-0.107ZM0.429,-0.161L0.482,-0.161L0.482,-0.107L0.429,-0.107L0.429,-0.161ZM0.482,-0.161L0.536,-0.161L0.536,-0.107L0.482,-0.107L0.482,-0.161ZM0.482,-0.214L0.536,-0.214L0.536,-0.161L0.482,-0.161L0.482,-0.214ZM0.482,-0.268L0.536,-0.268L0.536,-0.214L0.482,-0.214L0.482,-0.268ZM0.482,-0.321L0.536,-0.321L0.536,-0.268L0.482,-0.268L0.482,-0.321ZM0.482,-0.375L0.536,-0.375L0.536,-0.321L0.482,-0.321L0.482,-0.375ZM0.482,-0.429L0.536,-0.429L0.536,-0.375L0.482,-0.375L0.482,-0.429ZM0.054,-0.375L0.107,-0.375L0.107,-0.321L0.054,-0.321L0.054,-0.375ZM0.054,-0.321L0.107,-0.321L0.107,-0.268L0.054,-0.268L0.054,-0.321ZM0.054,-0.268L0.107,-0.268L0.107,-0.214L0.054,-0.214L0.054,-0.268ZM0.054,-0.214L0.107,-0.214L0.107,-0.161L0.054,-0.161L0.054,-0.214ZM0.054,-0.429L0.107,-0.429L0.107,-0.375L0.054,-0.375L0.054,-0.429ZM0.429,-0.429L0.482,-0.429L0.482,-0.375L0.429,-0.375L0.429,-0.429ZM0.429,-0.375L0.482,-0.375L0.482,-0.321L0.429,-0.321L0.429,-0.375ZM0.429,-0.321L0.482,-0.321L0.482,-0.268L0.429,-0.268L0.429,-0.321ZM0.429,-0.268L0.482,-0.268L0.482,-0.214L0.429,-0.214L0.429,-0.268ZM0.429,-0.214L0.482,-0.214L0.482,-0.161L0.429,-0.161L0.429,-0.214ZM0.161,-0.054L0.214,-0.054L0.214,-0L0.161,-0L0.161,-0.054ZM0.214,-0.107L0.268,-0.107L0.268,-0.054L0.214,-0.054L0.214,-0.107ZM0.268,-0.107L0.321,-0.107L0.321,-0.054L0.268,-0.054L0.268,-0.107ZM0.321,-0.107L0.375,-0.107L0.375,-0.054L0.321,-0.054L0.321,-0.107ZM0.321,-0.054L0.375,-0.054L0.375,-0L0.321,-0L0.321,-0.054ZM0.107,-0.161L0.161,-0.161L0.161,-0.107L0.107,-0.107L0.107,-0.161ZM0.375,-0.161L0.429,-0.161L0.429,-0.107L0.375,-0.107L0.375,-0.161Z" style="fill-rule:nonzero;"/></g><g transform="matrix(127.778,0,0,127.778,1498.27,332.809)"><path d="M0,-0.375L0.054,-0.375L0.054,-0.321L0,-0.321L0,-0.375ZM0,-0.429L0.054,-0.429L0.054,-0.375L0,-0.375L0,-0.429ZM0.054,-0.429L0.107,-0.429L0.107,-0.375L0.054,-0.375L0.054,-0.429ZM0.054,-0.375L0.107,-0.375L0.107,-0.321L0.054,-0.321L0.054,-0.375ZM0.054,-0.321L0.107,-0.321L0.107,-0.268L0.054,-0.268L0.054,-0.321ZM0.054,-0.268L0.107,-0.268L0.107,-0.214L0.054,-0.214L0.054,-0.268ZM0.054,-0.214L0.107,-0.214L0.107,-0.161L0.054,-0.161L0.054,-0.214ZM0,-0.214L0.054,-0.214L0.054,-0.161L0,-0.161L0,-0.214ZM0,-0.268L0.054,-0.268L0.054,-0.214L0,-0.214L0,-0.268ZM0,-0.321L0.054,-0.321L0.054,-0.268L0,-0.268L0,-0.321ZM0,-0.161L0.054,-0.161L0.054,-0.107L0,-0.107L0,-0.161ZM0.054,-0.161L0.107,-0.161L0.107,-0.107L0.054,-0.107L0.054,-0.161ZM0.054,-0.107L0.107,-0.107L0.107,-0.054L0.054,-0.054L0.054,-0.107ZM0.054,-0.054L0.107,-0.054L0.107,-0L0.054,-0L0.054,-0.054ZM0,-0.054L0.054,-0.054L0.054,-0L0,-0L0,-0.054ZM0,-0.107L0.054,-0.107L0.054,-0.054L0,-0.054L0,-0.107ZM0.268,-0.054L0.321,-0.054L0.321,-0L0.268,-0L0.268,-0.054ZM0.321,-0.054L0.375,-0.054L0.375,-0L0.321,-0L0.321,-0.054ZM0.321,-0.107L0.375,-0.107L0.375,-0.054L0.321,-0.054L0.321,-0.107ZM0.321,-0.161L0.375,-0.161L0.375,-0.107L0.321,-0.107L0.321,-0.161ZM0.321,-0.214L0.375,-0.214L0.375,-0.161L0.321,-0.161L0.321,-0.214ZM0.321,-0.268L0.375,-0.268L0.375,-0.214L0.321,-0.214L0.321,-0.268ZM0.321,-0.321L0.375,-0.321L0.375,-0.268L0.321,-0.268L0.321,-0.321ZM0.321,-0.375L0.375,-0.375L0.375,-0.321L0.321,-0.321L0.321,-0.375ZM0.268,-0.268L0.321,-0.268L0.321,-0.214L0.268,-0.214L0.268,-0.268ZM0.268,-0.214L0.321,-0.214L0.321,-0.161L0.268,-0.161L0.268,-0.214ZM0.268,-0.161L0.321,-0.161L0.321,-0.107L0.268,-0.107L0.268,-0.161ZM0.268,-0.107L0.321,-0.107L0.321,-0.054L0.268,-0.054L0.268,-0.107ZM0.268,-0.321L0.321,-0.321L0.321,-0.268L0.268,-0.268L0.268,-0.321ZM0.107,-0.375L0.161,-0.375L0.161,-0.321L0.107,-0.321L0.107,-0.375ZM0.161,-0.375L0.214,-0.375L0.214,-0.321L0.161,-0.321L0.161,-0.375ZM0.214,-0.375L0.268,-0.375L0.268,-0.321L0.214,-0.321L0.214,-0.375ZM0.214,-0.429L0.268,-0.429L0.268,-0.375L0.214,-0.375L0.214,-0.429ZM0.268,-0.429L0.321,-0.429L0.321,-0.375L0.268,-0.375L0.268,-0.429ZM0.268,-0.375L0.321,-0.375L0.321,-0.321L0.268,-0.321L0.268,-0.375ZM0.161,-0.429L0.214,-0.429L0.214,-0.375L0.161,-0.375L0.161,-0.429ZM0,-0.536L0.054,-0.536L0.054,-0.482L0,-0.482L0,-0.536ZM0.054,-0.536L0.107,-0.536L0.107,-0.482L0.054,-0.482L0.054,-0.536ZM0.054,-0.482L0.107,-0.482L0.107,-0.429L0.054,-0.429L0.054,-0.482ZM0,-0.482L0.054,-0.482L0.054,-0.429L0,-0.429L0,-0.482Z" style="fill-rule:nonzero;"/></g><g transform="matrix(127.778,0,0,127.778,1553.03,332.809)"><path d="M0.107,-0.429L0.161,-0.429L0.161,-0.375L0.107,-0.375L0.107,-0.429ZM0.054,-0.429L0.107,-0.429L0.107,-0.375L0.054,-0.375L0.054,-0.429ZM0.054,-0.375L0.107,-0.375L0.107,-0.321L0.054,-0.321L0.054,-0.375ZM0.107,-0.375L0.161,-0.375L0.161,-0.321L0.107,-0.321L0.107,-0.375ZM0.161,-0.429L0.214,-0.429L0.214,-0.375L0.161,-0.375L0.161,-0.429ZM0.214,-0.429L0.268,-0.429L0.268,-0.375L0.214,-0.375L0.214,-0.429ZM0.268,-0.429L0.321,-0.429L0.321,-0.375L0.268,-0.375L0.268,-0.429ZM0.268,-0.375L0.321,-0.375L0.321,-0.321L0.268,-0.321L0.268,-0.375ZM0.214,-0.375L0.268,-0.375L0.268,-0.321L0.214,-0.321L0.214,-0.375ZM0.268,-0.268L0.321,-0.268L0.321,-0.214L0.268,-0.214L0.268,-0.268ZM0.321,-0.375L0.375,-0.375L0.375,-0.321L0.321,-0.321L0.321,-0.375ZM0.321,-0.321L0.375,-0.321L0.375,-0.268L0.321,-0.268L0.321,-0.321ZM0.321,-0.268L0.375,-0.268L0.375,-0.214L0.321,-0.214L0.321,-0.268ZM0.321,-0.214L0.375,-0.214L0.375,-0.161L0.321,-0.161L0.321,-0.214ZM0.321,-0.161L0.375,-0.161L0.375,-0.107L0.321,-0.107L0.321,-0.161ZM0.321,-0.107L0.375,-0.107L0.375,-0.054L0.321,-0.054L0.321,-0.107ZM0.268,-0.107L0.321,-0.107L0.321,-0.054L0.268,-0.054L0.268,-0.107ZM0.268,-0.161L0.321,-0.161L0.321,-0.107L0.268,-0.107L0.268,-0.161ZM0.268,-0.214L0.321,-0.214L0.321,-0.161L0.268,-0.161L0.268,-0.214ZM0.268,-0.321L0.321,-0.321L0.321,-0.268L0.268,-0.268L0.268,-0.321ZM0.214,-0.107L0.268,-0.107L0.268,-0.054L0.214,-0.054L0.214,-0.107ZM0.268,-0.054L0.321,-0.054L0.321,-0L0.268,-0L0.268,-0.054ZM0.214,-0.054L0.268,-0.054L0.268,-0L0.214,-0L0.214,-0.054ZM0.161,-0.054L0.214,-0.054L0.214,-0L0.161,-0L0.161,-0.054ZM0.107,-0.054L0.161,-0.054L0.161,-0L0.107,-0L0.107,-0.054ZM0.054,-0.054L0.107,-0.054L0.107,-0L0.054,-0L0.054,-0.054ZM0.054,-0.107L0.107,-0.107L0.107,-0.054L0.054,-0.054L0.054,-0.107ZM0.107,-0.107L0.161,-0.107L0.161,-0.054L0.107,-0.054L0.107,-0.107ZM0.054,-0.161L0.107,-0.161L0.107,-0.107L0.054,-0.107L0.054,-0.161ZM0,-0.107L0.054,-0.107L0.054,-0.054L0,-0.054L0,-0.107ZM0,-0.161L0.054,-0.161L0.054,-0.107L0,-0.107L0,-0.161ZM0,-0.214L0.054,-0.214L0.054,-0.161L0,-0.161L0,-0.214ZM0,-0.268L0.054,-0.268L0.054,-0.214L0,-0.214L0,-0.268ZM0,-0.321L0.054,-0.321L0.054,-0.268L0,-0.268L0,-0.321ZM0,-0.375L0.054,-0.375L0.054,-0.321L0,-0.321L0,-0.375ZM0.054,-0.321L0.107,-0.321L0.107,-0.268L0.054,-0.268L0.054,-0.321ZM0.054,-0.268L0.107,-0.268L0.107,-0.214L0.054,-0.214L0.054,-0.268ZM0.054,-0.214L0.107,-0.214L0.107,-0.161L0.054,-0.161L0.054,-0.214ZM0.161,-0.107L0.214,-0.107L0.214,-0.054L0.161,-0.054L0.161,-0.107ZM0.161,-0.375L0.214,-0.375L0.214,-0.321L0.161,-0.321L0.161,-0.375Z" style="fill-rule:nonzero;"/></g><g transform="matrix(127.778,0,0,127.778,1635.17,332.809)"><path d="M0.375,-0.375L0.375,-0.321L0.321,-0.321L0.321,-0.375L0.375,-0.375ZM0.375,-0.429L0.375,-0.375L0.321,-0.375L0.321,-0.429L0.375,-0.429ZM0.321,-0.429L0.321,-0.375L0.268,-0.375L0.268,-0.429L0.321,-0.429ZM0.321,-0.375L0.321,-0.321L0.268,-0.321L0.268,-0.375L0.321,-0.375ZM0.321,-0.321L0.321,-0.268L0.268,-0.268L0.268,-0.321L0.321,-0.321ZM0.321,-0.268L0.321,-0.214L0.268,-0.214L0.268,-0.268L0.321,-0.268ZM0.321,-0.214L0.321,-0.161L0.268,-0.161L0.268,-0.214L0.321,-0.214ZM0.375,-0.214L0.375,-0.161L0.321,-0.161L0.321,-0.214L0.375,-0.214ZM0.375,-0.268L0.375,-0.214L0.321,-0.214L0.321,-0.268L0.375,-0.268ZM0.375,-0.321L0.375,-0.268L0.321,-0.268L0.321,-0.321L0.375,-0.321ZM0.375,-0.161L0.375,-0.107L0.321,-0.107L0.321,-0.161L0.375,-0.161ZM0.321,-0.161L0.321,-0.107L0.268,-0.107L0.268,-0.161L0.321,-0.161ZM0.321,-0.107L0.321,-0.054L0.268,-0.054L0.268,-0.107L0.321,-0.107ZM0.321,-0.054L0.321,-0L0.268,-0L0.268,-0.054L0.321,-0.054ZM0.375,-0.054L0.375,-0L0.321,-0L0.321,-0.054L0.375,-0.054ZM0.375,-0.107L0.375,-0.054L0.321,-0.054L0.321,-0.107L0.375,-0.107ZM0.107,-0.054L0.107,-0L0.054,-0L0.054,-0.054L0.107,-0.054ZM0.054,-0.107L0.054,-0.054L0,-0.054L0,-0.107L0.054,-0.107ZM0.054,-0.161L0.054,-0.107L0,-0.107L0,-0.161L0.054,-0.161ZM0.054,-0.214L0.054,-0.161L0,-0.161L0,-0.214L0.054,-0.214ZM0.054,-0.268L0.054,-0.214L0,-0.214L0,-0.268L0.054,-0.268ZM0.054,-0.321L0.054,-0.268L0,-0.268L0,-0.321L0.054,-0.321ZM0.054,-0.375L0.054,-0.321L0,-0.321L0,-0.375L0.054,-0.375ZM0.107,-0.268L0.107,-0.214L0.054,-0.214L0.054,-0.268L0.107,-0.268ZM0.107,-0.214L0.107,-0.161L0.054,-0.161L0.054,-0.214L0.107,-0.214ZM0.107,-0.161L0.107,-0.107L0.054,-0.107L0.054,-0.161L0.107,-0.161ZM0.107,-0.107L0.107,-0.054L0.054,-0.054L0.054,-0.107L0.107,-0.107ZM0.107,-0.321L0.107,-0.268L0.054,-0.268L0.054,-0.321L0.107,-0.321ZM0.161,-0.375L0.161,-0.321L0.107,-0.321L0.107,-0.375L0.161,-0.375ZM0.161,-0.429L0.161,-0.375L0.107,-0.375L0.107,-0.429L0.161,-0.429ZM0.107,-0.429L0.107,-0.375L0.054,-0.375L0.054,-0.429L0.107,-0.429ZM0.107,-0.375L0.107,-0.321L0.054,-0.321L0.054,-0.375L0.107,-0.375ZM0.214,-0.429L0.214,-0.375L0.161,-0.375L0.161,-0.429L0.214,-0.429ZM0.375,-0.536L0.375,-0.482L0.321,-0.482L0.321,-0.536L0.375,-0.536ZM0.321,-0.536L0.321,-0.482L0.268,-0.482L0.268,-0.536L0.321,-0.536ZM0.321,-0.482L0.321,-0.429L0.268,-0.429L0.268,-0.482L0.321,-0.482ZM0.375,-0.482L0.375,-0.429L0.321,-0.429L0.321,-0.482L0.375,-0.482ZM0.214,-0.054L0.214,-0L0.161,-0L0.161,-0.054L0.214,-0.054ZM0.161,-0.054L0.161,-0L0.107,-0L0.107,-0.054L0.161,-0.054ZM0.161,-0.107L0.161,-0.054L0.107,-0.054L0.107,-0.107L0.161,-0.107ZM0.214,-0.107L0.214,-0.054L0.161,-0.054L0.161,-0.107L0.214,-0.107ZM0.268,-0.107L0.268,-0.054L0.214,-0.054L0.214,-0.107L0.268,-0.107ZM0.268,-0.429L0.268,-0.375L0.214,-0.375L0.214,-0.429L0.268,-0.429ZM0.268,-0.375L0.268,-0.321L0.214,-0.321L0.214,-0.375L0.268,-0.375ZM0.214,-0.375L0.214,-0.321L0.161,-0.321L0.161,-0.375L0.214,-0.375Z" style="fill-rule:nonzero;"/></g><g transform="matrix(127.778,0,0,127.778,1689.94,332.809)"><path d="M0,-0.536L0.107,-0.536L0.107,-0.429L0,-0.429L0,-0.536ZM0,-0.375L0.107,-0.375L0.107,-0L0,-0L0,-0.375Z" style="fill-rule:nonzero;"/></g><g transform="matrix(127.778,0,0,127.778,1710.47,332.809)"><path d="M0,-0.375L0.054,-0.375L0.054,-0.321L0,-0.321L0,-0.375ZM0.054,-0.321L0.107,-0.321L0.107,-0.268L0.054,-0.268L0.054,-0.321ZM0,-0.321L0.054,-0.321L0.054,-0.268L0,-0.268L0,-0.321ZM0,-0.268L0.054,-0.268L0.054,-0.214L0,-0.214L0,-0.268ZM0.054,-0.268L0.107,-0.268L0.107,-0.214L0.054,-0.214L0.054,-0.268ZM0.054,-0.214L0.107,-0.214L0.107,-0.161L0.054,-0.161L0.054,-0.214ZM0.107,-0.214L0.161,-0.214L0.161,-0.161L0.107,-0.161L0.107,-0.214ZM0.161,-0.214L0.214,-0.214L0.214,-0.161L0.161,-0.161L0.161,-0.214ZM0.214,-0.268L0.268,-0.268L0.268,-0.214L0.214,-0.214L0.214,-0.268ZM0.161,-0.268L0.214,-0.268L0.214,-0.214L0.161,-0.214L0.161,-0.268ZM0.107,-0.268L0.161,-0.268L0.161,-0.214L0.107,-0.214L0.107,-0.268ZM0.214,-0.214L0.268,-0.214L0.268,-0.161L0.214,-0.161L0.214,-0.214ZM0.268,-0.214L0.321,-0.214L0.321,-0.161L0.268,-0.161L0.268,-0.214ZM0.268,-0.161L0.321,-0.161L0.321,-0.107L0.268,-0.107L0.268,-0.161ZM0.214,-0.161L0.268,-0.161L0.268,-0.107L0.214,-0.107L0.214,-0.161ZM0.214,-0.107L0.268,-0.107L0.268,-0.054L0.214,-0.054L0.214,-0.107ZM0.268,-0.107L0.321,-0.107L0.321,-0.054L0.268,-0.054L0.268,-0.107ZM0.214,-0.054L0.268,-0.054L0.268,-0L0.214,-0L0.214,-0.054ZM0.161,-0.107L0.214,-0.107L0.214,-0.054L0.161,-0.054L0.161,-0.107ZM0.107,-0.107L0.161,-0.107L0.161,-0.054L0.107,-0.054L0.107,-0.107ZM0.054,-0.107L0.107,-0.107L0.107,-0.054L0.054,-0.054L0.054,-0.107ZM0,-0.107L0.054,-0.107L0.054,-0.054L0,-0.054L0,-0.107ZM0.054,-0.054L0.107,-0.054L0.107,-0L0.054,-0L0.054,-0.054ZM0.107,-0.054L0.161,-0.054L0.161,-0L0.107,-0L0.107,-0.054ZM0.161,-0.054L0.214,-0.054L0.214,-0L0.161,-0L0.161,-0.054ZM0.268,-0.375L0.321,-0.375L0.321,-0.321L0.268,-0.321L0.268,-0.375ZM0.214,-0.375L0.268,-0.375L0.268,-0.321L0.214,-0.321L0.214,-0.375ZM0.214,-0.429L0.268,-0.429L0.268,-0.375L0.214,-0.375L0.214,-0.429ZM0.161,-0.429L0.214,-0.429L0.214,-0.375L0.161,-0.375L0.161,-0.429ZM0.107,-0.429L0.161,-0.429L0.161,-0.375L0.107,-0.375L0.107,-0.429ZM0.054,-0.429L0.107,-0.429L0.107,-0.375L0.054,-0.375L0.054,-0.429ZM0.054,-0.375L0.107,-0.375L0.107,-0.321L0.054,-0.321L0.054,-0.375ZM0.107,-0.375L0.161,-0.375L0.161,-0.321L0.107,-0.321L0.107,-0.375ZM0.161,-0.375L0.214,-0.375L0.214,-0.321L0.161,-0.321L0.161,-0.375Z" style="fill-rule:nonzero;"/></g><g transform="matrix(127.778,0,0,127.778,1758.39,332.809)"><path d="M0.107,-0.107L0.161,-0.107L0.161,-0.054L0.107,-0.054L0.107,-0.107ZM0.161,-0.107L0.214,-0.107L0.214,-0.054L0.161,-0.054L0.161,-0.107ZM0.161,-0.054L0.214,-0.054L0.214,-0L0.161,-0L0.161,-0.054ZM0.107,-0.054L0.161,-0.054L0.161,-0L0.107,-0L0.107,-0.054ZM0.107,-0.214L0.161,-0.214L0.161,-0.161L0.107,-0.161L0.107,-0.214ZM0.161,-0.214L0.214,-0.214L0.214,-0.161L0.161,-0.161L0.161,-0.214ZM0.161,-0.268L0.214,-0.268L0.214,-0.214L0.161,-0.214L0.161,-0.268ZM0.107,-0.268L0.161,-0.268L0.161,-0.214L0.107,-0.214L0.107,-0.268ZM0.107,-0.321L0.161,-0.321L0.161,-0.268L0.107,-0.268L0.107,-0.321ZM0.161,-0.321L0.214,-0.321L0.214,-0.268L0.161,-0.268L0.161,-0.321ZM0.214,-0.321L0.268,-0.321L0.268,-0.268L0.214,-0.268L0.214,-0.321ZM0.161,-0.375L0.214,-0.375L0.214,-0.321L0.161,-0.321L0.161,-0.375ZM0.214,-0.375L0.268,-0.375L0.268,-0.321L0.214,-0.321L0.214,-0.375ZM0.268,-0.375L0.321,-0.375L0.321,-0.321L0.268,-0.321L0.268,-0.375ZM0.268,-0.429L0.321,-0.429L0.321,-0.375L0.268,-0.375L0.268,-0.429ZM0.214,-0.429L0.268,-0.429L0.268,-0.375L0.214,-0.375L0.214,-0.429ZM0.214,-0.482L0.268,-0.482L0.268,-0.429L0.214,-0.429L0.214,-0.482ZM0.268,-0.482L0.321,-0.482L0.321,-0.429L0.268,-0.429L0.268,-0.482ZM0.214,-0.536L0.268,-0.536L0.268,-0.482L0.214,-0.482L0.214,-0.536ZM0.161,-0.536L0.214,-0.536L0.214,-0.482L0.161,-0.482L0.161,-0.536ZM0.161,-0.482L0.214,-0.482L0.214,-0.429L0.161,-0.429L0.161,-0.482ZM0.107,-0.482L0.161,-0.482L0.161,-0.429L0.107,-0.429L0.107,-0.482ZM0.054,-0.482L0.107,-0.482L0.107,-0.429L0.054,-0.429L0.054,-0.482ZM0.054,-0.536L0.107,-0.536L0.107,-0.482L0.054,-0.482L0.054,-0.536ZM0.107,-0.536L0.161,-0.536L0.161,-0.482L0.107,-0.482L0.107,-0.536ZM0,-0.482L0.054,-0.482L0.054,-0.429L0,-0.429L0,-0.482ZM0,-0.429L0.054,-0.429L0.054,-0.375L0,-0.375L0,-0.429ZM0.054,-0.429L0.107,-0.429L0.107,-0.375L0.054,-0.375L0.054,-0.429Z" style="fill-rule:nonzero;"/></g></g></svg>